<svg width="149" height="22" viewBox="0 0 149 22" fill="none" xmlns="http://www.w3.org/2000/svg">
<path d="M4.53516 2.67969V10.8828L11.5078 2.67969H16.3203L9.12891 10.6914L17.1406 21H12.1641L6.53125 13.5898L4.53516 15.832V21H0.734375V2.67969H4.53516ZM28.3789 11.0742C27.7956 10.7461 27.1849 10.582 26.5469 10.582C25.7448 10.582 25.0794 10.8464 24.5508 11.375C24.0221 11.8854 23.5573 12.5234 23.1562 13.2891V21H19.6836V7.19141H23.1562V9.78906C23.6302 8.96875 24.1862 8.28516 24.8242 7.73828C25.4805 7.19141 26.2188 6.91797 27.0391 6.91797C27.5312 6.91797 27.9779 7 28.3789 7.16406V11.0742ZM33.957 0C34.6133 0 35.1784 0.236979 35.6523 0.710938C36.1263 1.16667 36.3633 1.71354 36.3633 2.35156C36.3633 2.97135 36.1263 3.51823 35.6523 3.99219C35.1784 4.46615 34.6133 4.70312 33.957 4.70312C33.3008 4.70312 32.7357 4.46615 32.2617 3.99219C31.806 3.51823 31.5781 2.97135 31.5781 2.35156C31.5781 1.71354 31.806 1.16667 32.2617 0.710938C32.7357 0.236979 33.3008 0 33.957 0ZM35.9805 7.19141V21H32.5078V10.1445H30.293V7.19141H35.9805ZM44.8125 6.83594C45.6693 6.83594 46.4622 6.96354 47.1914 7.21875C47.9206 7.47396 48.4857 7.76562 48.8867 8.09375V11.1562C48.4492 10.8646 47.9115 10.582 47.2734 10.3086C46.6536 10.0352 46.0065 9.89844 45.332 9.89844C44.6758 9.89844 44.1562 10.0443 43.7734 10.3359C43.3906 10.6276 43.1992 10.974 43.1992 11.375C43.1992 11.6667 43.3086 11.9401 43.5273 12.1953C43.7461 12.4323 44.1654 12.6419 44.7852 12.8242L46.3438 13.3438C48.4401 13.9635 49.4883 15.1758 49.4883 16.9805C49.4883 17.8372 49.2422 18.6029 48.75 19.2773C48.276 19.9336 47.6289 20.4531 46.8086 20.8359C46.0065 21.2188 45.1133 21.4102 44.1289 21.4102C43.1992 21.4102 42.2969 21.2643 41.4219 20.9727C40.5469 20.681 39.8815 20.362 39.4258 20.0156V16.9805C39.7721 17.2174 40.1914 17.4453 40.6836 17.6641C41.1758 17.8828 41.6862 18.0651 42.2148 18.2109C42.7435 18.3385 43.2266 18.4023 43.6641 18.4023C44.3568 18.4023 44.8854 18.2839 45.25 18.0469C45.6328 17.7917 45.8242 17.4362 45.8242 16.9805C45.8242 16.6341 45.6693 16.3607 45.3594 16.1602C45.0495 15.9596 44.5938 15.7591 43.9922 15.5586L42.2969 14.957C41.2396 14.6107 40.5104 14.1185 40.1094 13.4805C39.7083 12.8424 39.5078 12.0859 39.5078 11.2109C39.5078 10.3359 39.7266 9.57943 40.1641 8.94141C40.6198 8.28516 41.2487 7.77474 42.0508 7.41016C42.8529 7.02734 43.7734 6.83594 44.8125 6.83594ZM60.0977 6.83594C61.5013 6.83594 62.6771 7.3099 63.625 8.25781C64.5729 9.20573 65.0469 10.6276 65.0469 12.5234V21H61.5742L61.5469 12.9883C61.5469 12.0586 61.319 11.3659 60.8633 10.9102C60.4258 10.4544 59.8151 10.2266 59.0312 10.2266C58.4115 10.2266 57.8281 10.4271 57.2812 10.8281C56.7526 11.2292 56.2969 11.7031 55.9141 12.25V21H52.4414V1.3125H55.9141V9.16016C56.3333 8.59505 56.8984 8.06641 57.6094 7.57422C58.3385 7.08203 59.168 6.83594 60.0977 6.83594ZM71.9375 0C72.5938 0 73.1589 0.236979 73.6328 0.710938C74.1068 1.16667 74.3438 1.71354 74.3438 2.35156C74.3438 2.97135 74.1068 3.51823 73.6328 3.99219C73.1589 4.46615 72.5938 4.70312 71.9375 4.70312C71.2812 4.70312 70.7161 4.46615 70.2422 3.99219C69.7865 3.51823 69.5586 2.97135 69.5586 2.35156C69.5586 1.71354 69.7865 1.16667 70.2422 0.710938C70.7161 0.236979 71.2812 0 71.9375 0ZM73.9609 7.19141V21H70.4883V10.1445H68.2734V7.19141H73.9609ZM97.0938 2.54297V21H93.293V9.84375L88.5898 14.9844H87.4961L82.7383 9.84375V21H78.9375V2.54297H80.2227L88.043 10.6914L95.8086 2.54297H97.0938ZM104.859 0C105.516 0 106.081 0.236979 106.555 0.710938C107.029 1.16667 107.266 1.71354 107.266 2.35156C107.266 2.97135 107.029 3.51823 106.555 3.99219C106.081 4.46615 105.516 4.70312 104.859 4.70312C104.203 4.70312 103.638 4.46615 103.164 3.99219C102.708 3.51823 102.48 2.97135 102.48 2.35156C102.48 1.71354 102.708 1.16667 103.164 0.710938C103.638 0.236979 104.203 0 104.859 0ZM106.883 7.19141V21H103.41V10.1445H101.195V7.19141H106.883ZM116.262 3.17188V7.19141H120.09V10.0898H116.262V16.0508C116.262 16.6706 116.398 17.1628 116.672 17.5273C116.964 17.8737 117.392 18.0469 117.957 18.0469C118.449 18.0469 118.868 17.9922 119.215 17.8828C119.579 17.7734 119.917 17.6185 120.227 17.418V20.1797C119.88 20.526 119.443 20.8177 118.914 21.0547C118.404 21.2917 117.757 21.4102 116.973 21.4102C115.733 21.4102 114.721 21.0182 113.938 20.2344C113.172 19.4323 112.789 18.3385 112.789 16.9531V10.0898H110.301V8.3125C111.176 8.0026 111.978 7.41927 112.707 6.5625C113.454 5.70573 114.047 4.57552 114.484 3.17188H116.262ZM132.477 11.0742C131.893 10.7461 131.283 10.582 130.645 10.582C129.842 10.582 129.177 10.8464 128.648 11.375C128.12 11.8854 127.655 12.5234 127.254 13.2891V21H123.781V7.19141H127.254V9.78906C127.728 8.96875 128.284 8.28516 128.922 7.73828C129.578 7.19141 130.316 6.91797 131.137 6.91797C131.629 6.91797 132.076 7 132.477 7.16406V11.0742ZM140.625 6.83594C141.372 6.83594 142.129 7.00911 142.895 7.35547C143.66 7.70182 144.298 8.16667 144.809 8.75V7.19141H148.281V21H144.809V18.6758C144.408 19.4232 143.824 20.0703 143.059 20.6172C142.293 21.1458 141.4 21.4102 140.379 21.4102C139.267 21.4102 138.237 21.1276 137.289 20.5625C136.359 19.9974 135.612 19.1771 135.047 18.1016C134.482 17.026 134.199 15.7227 134.199 14.1914C134.199 12.6602 134.482 11.3477 135.047 10.2539C135.63 9.16016 136.405 8.32161 137.371 7.73828C138.355 7.13672 139.44 6.83594 140.625 6.83594ZM141.336 10.2266C140.607 10.2266 139.978 10.418 139.449 10.8008C138.939 11.1654 138.538 11.6484 138.246 12.25C137.954 12.8516 137.809 13.4987 137.809 14.1914C137.809 15.2305 138.118 16.1146 138.738 16.8438C139.376 17.5729 140.215 17.9375 141.254 17.9375C141.874 17.9375 142.448 17.7734 142.977 17.4453C143.523 17.1172 143.961 16.6615 144.289 16.0781C144.635 15.4766 144.809 14.7565 144.809 13.918V11.9492C144.316 11.4206 143.779 11.0013 143.195 10.6914C142.63 10.3815 142.01 10.2266 141.336 10.2266Z" fill="#00B812"/>
</svg>
