<svg width="100" height="38" viewBox="0 0 100 38" fill="none" xmlns="http://www.w3.org/2000/svg">
<path d="M21.64 26.824H21.384L19.176 24.936C19.9227 24.0613 20.552 23.112 21.064 22.088C21.5973 21.064 21.864 20.2 21.864 19.496C21.864 18.9413 21.704 18.5253 21.384 18.248C21.0853 17.9493 20.7333 17.8 20.328 17.8C19.88 17.8 19.368 17.9493 18.792 18.248C18.216 18.5253 17.64 18.8667 17.064 19.272C16.488 19.6773 15.9653 20.0613 15.496 20.424L15.528 29.32H15.208L12.648 27.592L12.68 22.504C11.9333 23.0587 11.3147 23.4853 10.824 23.784C10.3547 24.0827 9.91733 24.296 9.512 24.424C9.10667 24.5307 8.65867 24.584 8.168 24.584C7.08 24.584 6.09867 24.296 5.224 23.72C4.37067 23.144 3.688 22.4187 3.176 21.544C2.68533 20.648 2.44 19.7627 2.44 18.888C2.44 17.9707 2.68533 17.1813 3.176 16.52C3.66667 15.8587 4.296 15.3467 5.064 14.984C5.85333 14.6213 6.664 14.44 7.496 14.44C8.584 14.44 9.56533 14.728 10.44 15.304C11.336 15.8587 12.104 16.5307 12.744 17.32L12.808 11.56H1.192L0.104 9.48V9.16H25.224L26.312 11.24V11.56H15.432L15.464 17.192C16.168 16.7013 16.8507 16.2853 17.512 15.944C18.1947 15.5813 18.7813 15.4 19.272 15.4C19.656 15.4 20.104 15.528 20.616 15.784C21.1493 16.0187 21.6613 16.3813 22.152 16.872C22.664 17.3627 23.08 17.9707 23.4 18.696C23.7413 19.4213 23.912 20.264 23.912 21.224C23.912 22.2053 23.7093 23.1333 23.304 24.008C22.92 24.8827 22.3653 25.8213 21.64 26.824ZM12.712 19.272V19.08C12.1573 18.4827 11.496 17.9707 10.728 17.544C9.96 17.1173 9.16 16.904 8.328 16.904C7.41067 16.904 6.57867 17.1813 5.832 17.736C5.10667 18.2907 4.744 19.0907 4.744 20.136C4.744 20.9467 4.95733 21.5547 5.384 21.96C5.81067 22.344 6.312 22.536 6.888 22.536C7.4 22.536 7.976 22.376 8.616 22.056C9.27733 21.7147 9.96 21.2987 10.664 20.808C11.368 20.3173 12.0507 19.8053 12.712 19.272ZM17.5445 34.44L19.0805 36.424C18.7392 36.6373 18.2058 36.8933 17.4805 37.192C16.7338 37.512 15.8592 37.672 14.8565 37.672C13.6192 37.672 12.6058 37.416 11.8165 36.904C11.0272 36.4133 10.4405 35.816 10.0565 35.112C9.6725 34.408 9.4805 33.7787 9.4805 33.224C9.4805 32.5413 9.71517 31.944 10.1845 31.432C10.6325 30.92 11.2405 30.504 12.0085 30.184C12.7552 29.864 13.5658 29.672 14.4405 29.608L15.9125 31.528V31.72C14.8032 31.8053 13.9285 31.9867 13.2885 32.264C12.6485 32.5413 12.2005 32.8507 11.9445 33.192C11.6672 33.5547 11.5285 33.896 11.5285 34.216C11.5285 34.5147 11.6778 34.824 11.9765 35.144C12.2538 35.464 12.8192 35.624 13.6725 35.624C14.2058 35.624 14.7925 35.5387 15.4325 35.368C16.0512 35.1973 16.7552 34.888 17.5445 34.44ZM31.1663 29.48H30.8463L28.2863 27.816L28.4143 11.56H25.5983L24.5102 9.48V9.16H28.5743C28.1903 8.56267 27.9129 7.976 27.7423 7.4C27.5716 6.80267 27.4863 6.22667 27.4863 5.672C27.4863 4.81867 27.6996 4.02933 28.1263 3.304C28.5743 2.57867 29.2569 1.992 30.1743 1.544C31.0916 1.07467 32.2436 0.839998 33.6302 0.839998C34.8889 0.839998 36.1689 1.064 37.4703 1.512C38.7716 1.93867 40.1583 2.64267 41.6303 3.624C43.1023 4.60533 44.7023 5.896 46.4303 7.496L45.5663 8.488C44.4356 7.528 43.2729 6.664 42.0783 5.896C40.8836 5.10666 39.6569 4.47733 38.3983 4.008C37.1609 3.53867 35.9023 3.304 34.6223 3.304C33.4916 3.304 32.5636 3.496 31.8383 3.88C31.1343 4.24267 30.6223 4.712 30.3023 5.288C29.9823 5.864 29.8223 6.48267 29.8223 7.144C29.8223 7.50667 29.8649 7.848 29.9503 8.168C30.0569 8.488 30.1956 8.81867 30.3663 9.16H33.7583L34.8463 11.24V11.56H31.1023L31.1663 29.48ZM43.1855 24.04C42.3535 24.04 41.5322 23.848 40.7215 23.464C39.9108 23.08 39.1748 22.5893 38.5135 21.992C37.8522 21.3947 37.3188 20.7653 36.9135 20.104C36.5295 19.4427 36.3268 18.8347 36.3055 18.28C36.2842 17.9813 36.2735 17.6827 36.2735 17.384C36.2735 17.0853 36.2735 16.8187 36.2735 16.584C36.2735 15.88 36.2735 15.08 36.2735 14.184C36.2948 13.288 36.3055 12.4133 36.3055 11.56H34.1295L33.0415 9.48V9.16H52.0495L53.1375 11.24V11.56H49.3935L49.4575 29.32H49.1375L46.5775 27.656L46.6095 23.016C46.0335 23.3787 45.4575 23.6453 44.8815 23.816C44.3055 23.9653 43.7402 24.04 43.1855 24.04ZM39.0255 13.224L39.0895 19.016C39.1108 19.6987 39.2602 20.264 39.5375 20.712C39.8148 21.1387 40.1455 21.4587 40.5295 21.672C40.9348 21.864 41.3082 21.96 41.6495 21.96C42.8015 21.96 44.2842 21.352 46.0975 20.136L39.0255 13.224ZM46.7055 11.56H39.3135L46.6415 18.792L46.7055 11.56ZM58.01 29.48H57.69L55.13 27.816L55.258 11.56H52.442L51.354 9.48V9.16H55.418C55.0127 8.52 54.7247 7.912 54.554 7.336C54.4047 6.76 54.33 6.216 54.33 5.704C54.33 4.25333 54.906 3.06933 56.058 2.152C57.2313 1.23467 58.9593 0.775999 61.242 0.775999C63.418 0.775999 65.8073 1.27733 68.41 2.28C71.0127 3.28267 73.946 4.968 77.21 7.336L76.506 8.424C75.0767 7.464 73.5513 6.58933 71.93 5.8C70.3087 5.01067 68.6767 4.392 67.034 3.944C65.3913 3.47466 63.8127 3.24 62.298 3.24C60.6127 3.24 59.2473 3.56 58.202 4.2C57.178 4.84 56.666 5.78933 56.666 7.048C56.666 7.34667 56.698 7.67733 56.762 8.04C56.8473 8.40267 56.9967 8.776 57.21 9.16H60.602L61.69 11.24V11.56H57.946L58.01 29.48ZM63.2773 19.08H65.0052L65.0373 11.56H60.9733L59.8852 9.48V9.16H80.1733L81.2613 11.24V11.56H77.5173L77.5813 29.32H77.2613L74.7013 27.656L74.7333 21.48H67.7253V23.784C67.7253 24.3173 67.4799 24.584 66.9893 24.584C66.6693 24.584 66.2533 24.424 65.7413 24.104C65.2506 23.7627 64.7493 23.336 64.2373 22.824C63.7466 22.312 63.3306 21.7893 62.9893 21.256C62.6479 20.7013 62.4773 20.2213 62.4773 19.816C62.4773 19.624 62.5413 19.4533 62.6693 19.304C62.7973 19.1547 62.9999 19.08 63.2773 19.08ZM74.8293 11.56H67.6613L67.6933 19.08H74.7653L74.8293 11.56ZM93.143 21.064L85.591 26.28L83.703 24.424L92.247 18.952C91.2017 18.1627 90.3697 17.6293 89.751 17.352C89.1323 17.0533 88.5777 16.904 88.087 16.904C87.7243 16.904 87.255 16.9893 86.679 17.16C86.103 17.3307 85.5163 17.5333 84.919 17.768C84.3217 18.0027 83.7883 18.216 83.319 18.408L81.623 16.2V16.04C82.199 15.8267 82.8177 15.6133 83.479 15.4C84.1617 15.1653 84.823 14.9733 85.463 14.824C86.103 14.6533 86.647 14.568 87.095 14.568C87.6923 14.568 88.2257 14.664 88.695 14.856C89.1857 15.048 89.7617 15.3893 90.423 15.88C91.1057 16.3493 92.023 17.0427 93.175 17.96L93.239 11.56H80.567L79.479 9.48V9.16H98.583L99.671 11.24V11.56H95.927L95.991 29.32H95.671L93.111 27.656L93.175 21.064H93.143Z" fill="#00B812"/>
</svg>
